<svg viewBox="0 0 8 4.5" preserveAspectRatio="none" xmlns="http://www.w3.org/2000/svg"><polygon points="0,0 1,0 1,4.5 0,4.5" fill="#85dce5"/><polygon points="1,0 2,0 2,4.5 1,4.5" fill="#ebf2f4"/><polygon points="2,0 3,0 3,4.5 2,4.5" fill="#fe5221"/><polygon points="3,0 4,0 4,4.5 3,4.5" fill="#f7fc8b"/><polygon points="4,0 5,0 5,4.5 4,4.5" fill="#12a9d1"/><polygon points="5,0 6,0 6,4.5 5,4.5" fill="#413731"/><polygon points="6,0 7,0 7,4.5 6,4.5" fill="#bd2d07"/><polygon points="7,0 8,0 8,4.5 7,4.5" fill="#cfed25"/></svg>